<svg xmlns="http://www.w3.org/2000/svg" viewBox="0 0 47.93 52.86"><defs><style>.cls-1{fill:#f7f8f9;}.cls-2{fill:#b52b43;}</style></defs><title>icone_pdf</title><g id="Calque_2" data-name="Calque 2"><g id="Calque_1-2" data-name="Calque 1"><circle class="cls-1" cx="17.93" cy="17.93" r="17.93"/><polygon class="cls-2" points="34.16 18.86 32.16 21.86 20.93 21.86 20.93 47.86 21.93 47.86 21.93 22.86 32.7 22.86 34.7 19.86 43.93 19.86 43.93 47.86 44.93 47.86 44.93 18.86 34.16 18.86"/><polygon class="cls-2" points="41.23 46.86 39.23 48.86 26.64 48.86 24.64 46.86 17.93 46.86 17.93 52.86 18.93 52.86 18.93 47.86 24.23 47.86 26.23 49.86 39.64 49.86 41.64 47.86 46.93 47.86 46.93 52.86 47.93 52.86 47.93 46.86 41.23 46.86"/><path class="cls-2" d="M39.93,43.86h-12v-9h12Zm-11-1h10v-7h-10Z"/><rect class="cls-2" x="29.93" y="36.86" width="8" height="1"/><rect class="cls-2" x="29.93" y="40.86" width="8" height="1"/><rect class="cls-2" x="29.93" y="38.86" width="8" height="1"/><path class="cls-2" d="M23.93,45.36h1v-1h-1Zm0-2h1v-1h-1Zm0-2h1v-1h-1Zm0-2h1v-1h-1Zm0-2h1v-1h-1Zm0-2h1v-1h-1Zm0-2h1v-1h-1Zm0-2h1v-1h-1Zm0-2h1v-1h-1Zm0-2h1v-1h-1Zm0-2h1v-1h-1Z"/></g></g></svg>